<svg width="325" height="337" viewBox="0 0 325 337" fill="none" xmlns="http://www.w3.org/2000/svg">
<path d="M290.168 145.624L37.9314 182.031C27.0095 183.64 15.9401 179.984 8.5604 171.943C3.24705 166.094 0 158.345 0 149.864C0 132.319 13.8738 117.99 31.4373 117.112C32.6181 117.112 33.6512 116.966 34.832 116.82L287.069 80.5589C297.99 78.9505 309.06 82.6059 316.44 90.6477C321.753 96.4962 325 104.246 325 112.726C325 130.272 311.126 144.601 293.563 145.478C292.53 145.332 291.349 145.478 290.168 145.624Z" fill="white" fill-opacity="0.05"/>
<path d="M263.896 231.891L61.1036 261.133C42.802 261.133 28.0427 246.512 28.0427 228.381C28.0427 210.251 42.802 195.629 61.1036 195.629L263.896 166.387C282.198 166.387 296.957 181.008 296.957 199.139C296.957 217.123 282.198 231.891 263.896 231.891Z" fill="white" fill-opacity="0.05"/>
<path d="M210.32 321.52L114.532 336.141C96.2307 336.141 81.4714 321.52 81.4714 303.389C81.4714 285.259 96.2307 270.637 114.532 270.637L210.32 256.016C228.622 256.016 243.381 270.637 243.381 288.768C243.529 306.898 228.622 321.52 210.32 321.52Z" fill="white" fill-opacity="0.05"/>
<path d="M195.561 76.9035V32.8931C195.561 14.7625 180.802 0.141113 162.5 0.141113C144.199 0.141113 129.439 14.7625 129.439 32.8931V86.4074L195.561 76.9035Z" fill="white" fill-opacity="0.05"/>
</svg>
